# xmcd
#
# Track frame offsets: 
#        150
#        14313
#        30890
#        44275
#        57375
#        70730
#        86575
#        101508
#        114640
#        130348
#        147023
#        161755
#        177175
#        189258
#        203733
#        217235
#
# Disc length: 3081 seconds
#
# Revision: 0
# Processed by: cddbd v1.5.2PL0 Copyright (c) Steve Scherf et al.
# Submitted via: ExactAudioCopyFreeDBPlugin 1.0
#
DISCID=db0c0710
DTITLE=Jelly Roll Morton - The Complete Jelly Roll Morton Vol.6
DYEAR=1930
DGENRE=Jazz
TTITLE0=EACH DAY
TTITLE1=IF SOMEONE WOULD ONLY LOVE ME
TTITLE2=THAT'LL NEVER DO
TTITLE3=I'M LOOKING FOR A LITTLE BLUEBIRD
TTITLE4=LITTLE LAWRENCE
TTITLE5=HARMONY BLUES
TTITLE6=FUSSY MABEL
TTITLE7=PONCHATRAIN
TTITLE8=WHEN THEY GET LOVIN' THEY'S GONE 1
TTITLE9=WHEN THEY GET LOVIN' THEY'S GONE 2
TTITLE10=YOU DONE PLAYED OUT BLUES 1
TTITLE11=YOU DONE PLAYED OUT BLUES 2
TTITLE12=OIL WELL 1
TTITLE13=OIL WELL 2
TTITLE14=LOAD OF COAL 1
TTITLE15=LOAD OF COAL 2
EXTD=
EXTT0=
EXTT1=
EXTT2=
EXTT3=
EXTT4=
EXTT5=
EXTT6=
EXTT7=
EXTT8=
EXTT9=
EXTT10=
EXTT11=
EXTT12=
EXTT13=
EXTT14=
EXTT15=
PLAYORDER=
